solid OpenSCAD_Model
  facet normal 0 -1 0
    outer loop
      vertex -27.5 -47.6314 0
      vertex 27.5 -47.6314 11.5
      vertex -27.5 -47.6314 11.5
    endloop
  endfacet
  facet normal 0 -1 -0
    outer loop
      vertex 27.5 -47.6314 11.5
      vertex -27.5 -47.6314 0
      vertex 27.5 -47.6314 0
    endloop
  endfacet
  facet normal 0.866025 -0.5 0
    outer loop
      vertex 27.5 -47.6314 11.5
      vertex 55 0 0
      vertex 55 0 11.5
    endloop
  endfacet
  facet normal 0.866025 -0.5 0
    outer loop
      vertex 55 0 0
      vertex 27.5 -47.6314 11.5
      vertex 27.5 -47.6314 0
    endloop
  endfacet
  facet normal 0 1 -0
    outer loop
      vertex 27.5 47.6314 0
      vertex -27.5 47.6314 11.5
      vertex 27.5 47.6314 11.5
    endloop
  endfacet
  facet normal 0 1 0
    outer loop
      vertex -27.5 47.6314 11.5
      vertex 27.5 47.6314 0
      vertex -27.5 47.6314 0
    endloop
  endfacet
  facet normal 0.866025 0.5 0
    outer loop
      vertex 55 0 11.5
      vertex 27.5 47.6314 0
      vertex 27.5 47.6314 11.5
    endloop
  endfacet
  facet normal 0.866025 0.5 0
    outer loop
      vertex 27.5 47.6314 0
      vertex 55 0 11.5
      vertex 55 0 0
    endloop
  endfacet
  facet normal -0.866025 0.5 0
    outer loop
      vertex -55 0 0
      vertex -27.5 47.6314 11.5
      vertex -27.5 47.6314 0
    endloop
  endfacet
  facet normal -0.866025 0.5 0
    outer loop
      vertex -27.5 47.6314 11.5
      vertex -55 0 0
      vertex -55 0 11.5
    endloop
  endfacet
  facet normal -0.866025 -0.5 0
    outer loop
      vertex -27.5 -47.6314 0
      vertex -55 0 11.5
      vertex -55 0 0
    endloop
  endfacet
  facet normal -0.866025 -0.5 0
    outer loop
      vertex -55 0 11.5
      vertex -27.5 -47.6314 0
      vertex -27.5 -47.6314 11.5
    endloop
  endfacet
  facet normal 0 0 1
    outer loop
      vertex 27.5 47.6314 11.5
      vertex 27.5 -47.6314 11.5
      vertex 55 0 11.5
    endloop
  endfacet
  facet normal -0 0 1
    outer loop
      vertex -27.5 47.6314 11.5
      vertex 27.5 -47.6314 11.5
      vertex 27.5 47.6314 11.5
    endloop
  endfacet
  facet normal 0 0 1
    outer loop
      vertex -27.5 47.6314 11.5
      vertex -27.5 -47.6314 11.5
      vertex 27.5 -47.6314 11.5
    endloop
  endfacet
  facet normal 0 -0 1
    outer loop
      vertex -27.5 -47.6314 11.5
      vertex -27.5 47.6314 11.5
      vertex -55 0 11.5
    endloop
  endfacet
  facet normal 0 0 -1
    outer loop
      vertex 27.5 -47.6314 0
      vertex 49 0 0
      vertex 55 0 0
    endloop
  endfacet
  facet normal 0 0 -1
    outer loop
      vertex 27.5 -47.6314 0
      vertex 24.5 -42.4352 0
      vertex 49 0 0
    endloop
  endfacet
  facet normal 0 0 -1
    outer loop
      vertex 27.5 -47.6314 0
      vertex -24.5 -42.4352 0
      vertex 24.5 -42.4352 0
    endloop
  endfacet
  facet normal 0 0 -1
    outer loop
      vertex -27.5 -47.6314 0
      vertex -24.5 -42.4352 0
      vertex 27.5 -47.6314 0
    endloop
  endfacet
  facet normal 0 0 -1
    outer loop
      vertex -27.5 -47.6314 0
      vertex -49 0 0
      vertex -24.5 -42.4352 0
    endloop
  endfacet
  facet normal -0 -0 -1
    outer loop
      vertex -49 0 0
      vertex -27.5 -47.6314 0
      vertex -55 0 0
    endloop
  endfacet
  facet normal 0 0 -1
    outer loop
      vertex 49 0 0
      vertex 27.5 47.6314 0
      vertex 55 0 0
    endloop
  endfacet
  facet normal 0 0 -1
    outer loop
      vertex 24.5 42.4352 0
      vertex 27.5 47.6314 0
      vertex 49 0 0
    endloop
  endfacet
  facet normal 0 0 -1
    outer loop
      vertex -24.5 42.4352 0
      vertex 27.5 47.6314 0
      vertex 24.5 42.4352 0
    endloop
  endfacet
  facet normal 0 0 -1
    outer loop
      vertex -24.5 42.4352 0
      vertex -27.5 47.6314 0
      vertex 27.5 47.6314 0
    endloop
  endfacet
  facet normal 0 0 -1
    outer loop
      vertex -49 0 0
      vertex -27.5 47.6314 0
      vertex -24.5 42.4352 0
    endloop
  endfacet
  facet normal 0 0 -1
    outer loop
      vertex -27.5 47.6314 0
      vertex -49 0 0
      vertex -55 0 0
    endloop
  endfacet
  facet normal 0 1 -0
    outer loop
      vertex 24.5 -42.4352 0
      vertex -24.5 -42.4352 8.5
      vertex 24.5 -42.4352 8.5
    endloop
  endfacet
  facet normal 0 1 0
    outer loop
      vertex -24.5 -42.4352 8.5
      vertex 24.5 -42.4352 0
      vertex -24.5 -42.4352 0
    endloop
  endfacet
  facet normal -0.866025 0.5 0
    outer loop
      vertex 24.5 -42.4352 0
      vertex 49 0 8.5
      vertex 49 0 0
    endloop
  endfacet
  facet normal -0.866025 0.5 0
    outer loop
      vertex 49 0 8.5
      vertex 24.5 -42.4352 0
      vertex 24.5 -42.4352 8.5
    endloop
  endfacet
  facet normal 0 -1 0
    outer loop
      vertex -24.5 42.4352 0
      vertex 24.5 42.4352 8.5
      vertex -24.5 42.4352 8.5
    endloop
  endfacet
  facet normal 0 -1 -0
    outer loop
      vertex 24.5 42.4352 8.5
      vertex -24.5 42.4352 0
      vertex 24.5 42.4352 0
    endloop
  endfacet
  facet normal -0.866025 -0.5 0
    outer loop
      vertex 49 0 0
      vertex 24.5 42.4352 8.5
      vertex 24.5 42.4352 0
    endloop
  endfacet
  facet normal -0.866025 -0.5 0
    outer loop
      vertex 24.5 42.4352 8.5
      vertex 49 0 0
      vertex 49 0 8.5
    endloop
  endfacet
  facet normal 0.866025 -0.5 0
    outer loop
      vertex -49 0 8.5
      vertex -24.5 42.4352 0
      vertex -24.5 42.4352 8.5
    endloop
  endfacet
  facet normal 0.866025 -0.5 0
    outer loop
      vertex -24.5 42.4352 0
      vertex -49 0 8.5
      vertex -49 0 0
    endloop
  endfacet
  facet normal 0.866025 0.5 0
    outer loop
      vertex -24.5 -42.4352 8.5
      vertex -49 0 0
      vertex -49 0 8.5
    endloop
  endfacet
  facet normal 0.866025 0.5 0
    outer loop
      vertex -49 0 0
      vertex -24.5 -42.4352 8.5
      vertex -24.5 -42.4352 0
    endloop
  endfacet
  facet normal 0 0 -1
    outer loop
      vertex 24.5 -42.4352 8.5
      vertex 24.5 42.4352 8.5
      vertex 49 0 8.5
    endloop
  endfacet
  facet normal 0 0 -1
    outer loop
      vertex -24.5 -42.4352 8.5
      vertex 24.5 42.4352 8.5
      vertex 24.5 -42.4352 8.5
    endloop
  endfacet
  facet normal 0 0 -1
    outer loop
      vertex -24.5 -42.4352 8.5
      vertex -24.5 42.4352 8.5
      vertex 24.5 42.4352 8.5
    endloop
  endfacet
  facet normal 0 -0 -1
    outer loop
      vertex -24.5 42.4352 8.5
      vertex -24.5 -42.4352 8.5
      vertex -49 0 8.5
    endloop
  endfacet
endsolid OpenSCAD_Model
