solid OpenSCAD_Model
  facet normal 0 -1 0
    outer loop
      vertex -24.5 42.4352 -8.5
      vertex 24.5 42.4352 0
      vertex -24.5 42.4352 0
    endloop
  endfacet
  facet normal 0 -1 -0
    outer loop
      vertex 24.5 42.4352 0
      vertex -24.5 42.4352 -8.5
      vertex 24.5 42.4352 -8.5
    endloop
  endfacet
  facet normal -0.866025 -0.5 0
    outer loop
      vertex 49 0 -8.5
      vertex 24.5 42.4352 0
      vertex 24.5 42.4352 -8.5
    endloop
  endfacet
  facet normal -0.866025 -0.5 0
    outer loop
      vertex 24.5 42.4352 0
      vertex 49 0 -8.5
      vertex 49 0 0
    endloop
  endfacet
  facet normal 0 1 -0
    outer loop
      vertex 24.5 -42.4352 -8.5
      vertex -24.5 -42.4352 0
      vertex 24.5 -42.4352 0
    endloop
  endfacet
  facet normal 0 1 0
    outer loop
      vertex -24.5 -42.4352 0
      vertex 24.5 -42.4352 -8.5
      vertex -24.5 -42.4352 -8.5
    endloop
  endfacet
  facet normal -0.866025 0.5 0
    outer loop
      vertex 24.5 -42.4352 -8.5
      vertex 49 0 0
      vertex 49 0 -8.5
    endloop
  endfacet
  facet normal -0.866025 0.5 0
    outer loop
      vertex 49 0 0
      vertex 24.5 -42.4352 -8.5
      vertex 24.5 -42.4352 0
    endloop
  endfacet
  facet normal 0.866025 0.5 0
    outer loop
      vertex -24.5 -42.4352 0
      vertex -49 0 -8.5
      vertex -49 0 0
    endloop
  endfacet
  facet normal 0.866025 0.5 0
    outer loop
      vertex -49 0 -8.5
      vertex -24.5 -42.4352 0
      vertex -24.5 -42.4352 -8.5
    endloop
  endfacet
  facet normal 0.866025 -0.5 0
    outer loop
      vertex -49 0 0
      vertex -24.5 42.4352 -8.5
      vertex -24.5 42.4352 0
    endloop
  endfacet
  facet normal 0.866025 -0.5 0
    outer loop
      vertex -24.5 42.4352 -8.5
      vertex -49 0 0
      vertex -49 0 -8.5
    endloop
  endfacet
  facet normal -0 0 1
    outer loop
      vertex 13.1446 7.22631 -8.5
      vertex 49 0 -8.5
      vertex 24.5 42.4352 -8.5
    endloop
  endfacet
  facet normal 0 0 1
    outer loop
      vertex 14.8817 -1.88 -8.5
      vertex 49 0 -8.5
      vertex 15 0 -8.5
    endloop
  endfacet
  facet normal 0 0 1
    outer loop
      vertex 49 0 -8.5
      vertex 14.8817 1.88 -8.5
      vertex 15 0 -8.5
    endloop
  endfacet
  facet normal 0 0 1
    outer loop
      vertex 49 0 -8.5
      vertex 14.5287 3.73035 -8.5
      vertex 14.8817 1.88 -8.5
    endloop
  endfacet
  facet normal 0 0 1
    outer loop
      vertex 49 0 -8.5
      vertex 13.9466 5.52187 -8.5
      vertex 14.5287 3.73035 -8.5
    endloop
  endfacet
  facet normal 0 0 1
    outer loop
      vertex 49 0 -8.5
      vertex 13.1446 7.22631 -8.5
      vertex 13.9466 5.52187 -8.5
    endloop
  endfacet
  facet normal 0 0 1
    outer loop
      vertex 24.5 42.4352 -8.5
      vertex 12.1353 8.81678 -8.5
      vertex 13.1446 7.22631 -8.5
    endloop
  endfacet
  facet normal 0 0 1
    outer loop
      vertex 24.5 42.4352 -8.5
      vertex 10.9345 10.2682 -8.5
      vertex 12.1353 8.81678 -8.5
    endloop
  endfacet
  facet normal 0 0 1
    outer loop
      vertex 24.5 42.4352 -8.5
      vertex 9.56136 11.5577 -8.5
      vertex 10.9345 10.2682 -8.5
    endloop
  endfacet
  facet normal 0 0 1
    outer loop
      vertex 24.5 42.4352 -8.5
      vertex 8.0374 12.6649 -8.5
      vertex 9.56136 11.5577 -8.5
    endloop
  endfacet
  facet normal 0 0 1
    outer loop
      vertex 24.5 42.4352 -8.5
      vertex 6.38669 13.5724 -8.5
      vertex 8.0374 12.6649 -8.5
    endloop
  endfacet
  facet normal 0 0 1
    outer loop
      vertex 24.5 42.4352 -8.5
      vertex 4.63525 14.2658 -8.5
      vertex 6.38669 13.5724 -8.5
    endloop
  endfacet
  facet normal 0 0 1
    outer loop
      vertex 24.5 42.4352 -8.5
      vertex 2.81072 14.7343 -8.5
      vertex 4.63525 14.2658 -8.5
    endloop
  endfacet
  facet normal 0 0 1
    outer loop
      vertex 24.5 42.4352 -8.5
      vertex 0.941857 14.9704 -8.5
      vertex 2.81072 14.7343 -8.5
    endloop
  endfacet
  facet normal 0 0 1
    outer loop
      vertex 24.5 42.4352 -8.5
      vertex -0.941857 14.9704 -8.5
      vertex 0.941857 14.9704 -8.5
    endloop
  endfacet
  facet normal -0 0 1
    outer loop
      vertex -24.5 42.4352 -8.5
      vertex -0.941857 14.9704 -8.5
      vertex 24.5 42.4352 -8.5
    endloop
  endfacet
  facet normal 0 0 1
    outer loop
      vertex -0.941857 14.9704 -8.5
      vertex -24.5 42.4352 -8.5
      vertex -2.81072 14.7343 -8.5
    endloop
  endfacet
  facet normal 0 0 1
    outer loop
      vertex -2.81072 14.7343 -8.5
      vertex -24.5 42.4352 -8.5
      vertex -4.63525 14.2658 -8.5
    endloop
  endfacet
  facet normal 0 0 1
    outer loop
      vertex -4.63525 14.2658 -8.5
      vertex -24.5 42.4352 -8.5
      vertex -6.38669 13.5724 -8.5
    endloop
  endfacet
  facet normal 0 0 1
    outer loop
      vertex -6.38669 13.5724 -8.5
      vertex -24.5 42.4352 -8.5
      vertex -8.0374 12.6649 -8.5
    endloop
  endfacet
  facet normal 0 0 1
    outer loop
      vertex -14.5287 3.73035 -8.5
      vertex -49 0 -8.5
      vertex -14.8817 1.88 -8.5
    endloop
  endfacet
  facet normal 0 0 1
    outer loop
      vertex -13.9466 5.52187 -8.5
      vertex -49 0 -8.5
      vertex -14.5287 3.73035 -8.5
    endloop
  endfacet
  facet normal 0 0 1
    outer loop
      vertex -13.1446 7.22631 -8.5
      vertex -49 0 -8.5
      vertex -13.9466 5.52187 -8.5
    endloop
  endfacet
  facet normal 0 0 1
    outer loop
      vertex -49 0 -8.5
      vertex -13.1446 7.22631 -8.5
      vertex -24.5 42.4352 -8.5
    endloop
  endfacet
  facet normal 0 0 1
    outer loop
      vertex -12.1353 8.81678 -8.5
      vertex -24.5 42.4352 -8.5
      vertex -13.1446 7.22631 -8.5
    endloop
  endfacet
  facet normal 0 0 1
    outer loop
      vertex -10.9345 10.2682 -8.5
      vertex -24.5 42.4352 -8.5
      vertex -12.1353 8.81678 -8.5
    endloop
  endfacet
  facet normal 0 0 1
    outer loop
      vertex -9.56136 11.5577 -8.5
      vertex -24.5 42.4352 -8.5
      vertex -10.9345 10.2682 -8.5
    endloop
  endfacet
  facet normal 0 0 1
    outer loop
      vertex -8.0374 12.6649 -8.5
      vertex -24.5 42.4352 -8.5
      vertex -9.56136 11.5577 -8.5
    endloop
  endfacet
  facet normal 0 0 1
    outer loop
      vertex 14.5287 -3.73035 -8.5
      vertex 49 0 -8.5
      vertex 14.8817 -1.88 -8.5
    endloop
  endfacet
  facet normal 0 0 1
    outer loop
      vertex 13.9466 -5.52187 -8.5
      vertex 49 0 -8.5
      vertex 14.5287 -3.73035 -8.5
    endloop
  endfacet
  facet normal 0 0 1
    outer loop
      vertex 13.1446 -7.22631 -8.5
      vertex 49 0 -8.5
      vertex 13.9466 -5.52187 -8.5
    endloop
  endfacet
  facet normal 0 0 1
    outer loop
      vertex 49 0 -8.5
      vertex 13.1446 -7.22631 -8.5
      vertex 24.5 -42.4352 -8.5
    endloop
  endfacet
  facet normal -0 0 1
    outer loop
      vertex 12.1353 -8.81678 -8.5
      vertex 24.5 -42.4352 -8.5
      vertex 13.1446 -7.22631 -8.5
    endloop
  endfacet
  facet normal -0 0 1
    outer loop
      vertex 10.9345 -10.2682 -8.5
      vertex 24.5 -42.4352 -8.5
      vertex 12.1353 -8.81678 -8.5
    endloop
  endfacet
  facet normal -0 0 1
    outer loop
      vertex 9.56136 -11.5577 -8.5
      vertex 24.5 -42.4352 -8.5
      vertex 10.9345 -10.2682 -8.5
    endloop
  endfacet
  facet normal -0 0 1
    outer loop
      vertex 8.0374 -12.6649 -8.5
      vertex 24.5 -42.4352 -8.5
      vertex 9.56136 -11.5577 -8.5
    endloop
  endfacet
  facet normal -0 0 1
    outer loop
      vertex 6.38669 -13.5724 -8.5
      vertex 24.5 -42.4352 -8.5
      vertex 8.0374 -12.6649 -8.5
    endloop
  endfacet
  facet normal -0 0 1
    outer loop
      vertex 4.63525 -14.2658 -8.5
      vertex 24.5 -42.4352 -8.5
      vertex 6.38669 -13.5724 -8.5
    endloop
  endfacet
  facet normal -0 0 1
    outer loop
      vertex 2.81072 -14.7343 -8.5
      vertex 24.5 -42.4352 -8.5
      vertex 4.63525 -14.2658 -8.5
    endloop
  endfacet
  facet normal -0 0 1
    outer loop
      vertex 0.941857 -14.9704 -8.5
      vertex 24.5 -42.4352 -8.5
      vertex 2.81072 -14.7343 -8.5
    endloop
  endfacet
  facet normal -0 0 1
    outer loop
      vertex -0.941857 -14.9704 -8.5
      vertex 24.5 -42.4352 -8.5
      vertex 0.941857 -14.9704 -8.5
    endloop
  endfacet
  facet normal 0 0 1
    outer loop
      vertex -24.5 -42.4352 -8.5
      vertex -0.941857 -14.9704 -8.5
      vertex -2.81072 -14.7343 -8.5
    endloop
  endfacet
  facet normal 0 0 1
    outer loop
      vertex -24.5 -42.4352 -8.5
      vertex -2.81072 -14.7343 -8.5
      vertex -4.63525 -14.2658 -8.5
    endloop
  endfacet
  facet normal 0 0 1
    outer loop
      vertex -24.5 -42.4352 -8.5
      vertex -4.63525 -14.2658 -8.5
      vertex -6.38669 -13.5724 -8.5
    endloop
  endfacet
  facet normal 0 0 1
    outer loop
      vertex -24.5 -42.4352 -8.5
      vertex -6.38669 -13.5724 -8.5
      vertex -8.0374 -12.6649 -8.5
    endloop
  endfacet
  facet normal 0 0 1
    outer loop
      vertex -24.5 -42.4352 -8.5
      vertex -8.0374 -12.6649 -8.5
      vertex -9.56136 -11.5577 -8.5
    endloop
  endfacet
  facet normal 0 0 1
    outer loop
      vertex -14.8817 1.88 -8.5
      vertex -49 0 -8.5
      vertex -15 0 -8.5
    endloop
  endfacet
  facet normal 0 0 1
    outer loop
      vertex -15 0 -8.5
      vertex -49 0 -8.5
      vertex -14.8817 -1.88 -8.5
    endloop
  endfacet
  facet normal 0 0 1
    outer loop
      vertex -0.941857 -14.9704 -8.5
      vertex -24.5 -42.4352 -8.5
      vertex 24.5 -42.4352 -8.5
    endloop
  endfacet
  facet normal 0 0 1
    outer loop
      vertex -10.9345 -10.2682 -8.5
      vertex -24.5 -42.4352 -8.5
      vertex -9.56136 -11.5577 -8.5
    endloop
  endfacet
  facet normal 0 0 1
    outer loop
      vertex -12.1353 -8.81678 -8.5
      vertex -24.5 -42.4352 -8.5
      vertex -10.9345 -10.2682 -8.5
    endloop
  endfacet
  facet normal 0 0 1
    outer loop
      vertex -13.1446 -7.22631 -8.5
      vertex -24.5 -42.4352 -8.5
      vertex -12.1353 -8.81678 -8.5
    endloop
  endfacet
  facet normal 0 0 1
    outer loop
      vertex -49 0 -8.5
      vertex -13.1446 -7.22631 -8.5
      vertex -13.9466 -5.52187 -8.5
    endloop
  endfacet
  facet normal 0 0 1
    outer loop
      vertex -49 0 -8.5
      vertex -13.9466 -5.52187 -8.5
      vertex -14.5287 -3.73035 -8.5
    endloop
  endfacet
  facet normal 0 0 1
    outer loop
      vertex -14.8817 -1.88 -8.5
      vertex -49 0 -8.5
      vertex -14.5287 -3.73035 -8.5
    endloop
  endfacet
  facet normal 0 0 1
    outer loop
      vertex -13.1446 -7.22631 -8.5
      vertex -49 0 -8.5
      vertex -24.5 -42.4352 -8.5
    endloop
  endfacet
  facet normal 0 0 1
    outer loop
      vertex 27.5 47.6314 0
      vertex 49 0 0
      vertex 55 0 0
    endloop
  endfacet
  facet normal 0 0 1
    outer loop
      vertex 27.5 47.6314 0
      vertex 24.5 42.4352 0
      vertex 49 0 0
    endloop
  endfacet
  facet normal 0 0 1
    outer loop
      vertex 27.5 47.6314 0
      vertex -24.5 42.4352 0
      vertex 24.5 42.4352 0
    endloop
  endfacet
  facet normal -0 0 1
    outer loop
      vertex -27.5 47.6314 0
      vertex -24.5 42.4352 0
      vertex 27.5 47.6314 0
    endloop
  endfacet
  facet normal 0 0 1
    outer loop
      vertex -27.5 47.6314 0
      vertex -49 0 0
      vertex -24.5 42.4352 0
    endloop
  endfacet
  facet normal 0 -0 1
    outer loop
      vertex -49 0 0
      vertex -27.5 47.6314 0
      vertex -55 0 0
    endloop
  endfacet
  facet normal -0 0 1
    outer loop
      vertex 49 0 0
      vertex 27.5 -47.6314 0
      vertex 55 0 0
    endloop
  endfacet
  facet normal -0 0 1
    outer loop
      vertex 24.5 -42.4352 0
      vertex 27.5 -47.6314 0
      vertex 49 0 0
    endloop
  endfacet
  facet normal -0 0 1
    outer loop
      vertex -24.5 -42.4352 0
      vertex 27.5 -47.6314 0
      vertex 24.5 -42.4352 0
    endloop
  endfacet
  facet normal 0 0 1
    outer loop
      vertex -24.5 -42.4352 0
      vertex -27.5 -47.6314 0
      vertex 27.5 -47.6314 0
    endloop
  endfacet
  facet normal 0 0 1
    outer loop
      vertex -49 0 0
      vertex -27.5 -47.6314 0
      vertex -24.5 -42.4352 0
    endloop
  endfacet
  facet normal 0 0 1
    outer loop
      vertex -27.5 -47.6314 0
      vertex -49 0 0
      vertex -55 0 0
    endloop
  endfacet
  facet normal 0 -1 0
    outer loop
      vertex -0.941857 14.9704 -11.5
      vertex 0.941857 14.9704 -8.5
      vertex -0.941857 14.9704 -8.5
    endloop
  endfacet
  facet normal 0 -1 -0
    outer loop
      vertex 0.941857 14.9704 -8.5
      vertex -0.941857 14.9704 -11.5
      vertex 0.941857 14.9704 -11.5
    endloop
  endfacet
  facet normal -0.982285 0.187395 0
    outer loop
      vertex 14.5287 -3.73035 -11.5
      vertex 14.8817 -1.88 -8.5
      vertex 14.8817 -1.88 -11.5
    endloop
  endfacet
  facet normal -0.982285 0.187395 0
    outer loop
      vertex 14.8817 -1.88 -8.5
      vertex 14.5287 -3.73035 -11.5
      vertex 14.5287 -3.73035 -8.5
    endloop
  endfacet
  facet normal -0.998026 0.0628013 0
    outer loop
      vertex 14.8817 -1.88 -11.5
      vertex 15 0 -8.5
      vertex 15 0 -11.5
    endloop
  endfacet
  facet normal -0.998026 0.0628013 0
    outer loop
      vertex 15 0 -8.5
      vertex 14.8817 -1.88 -11.5
      vertex 14.8817 -1.88 -8.5
    endloop
  endfacet
  facet normal -0.951057 0.309017 0
    outer loop
      vertex 13.9466 -5.52187 -11.5
      vertex 14.5287 -3.73035 -8.5
      vertex 14.5287 -3.73035 -11.5
    endloop
  endfacet
  facet normal -0.951057 0.309017 0
    outer loop
      vertex 14.5287 -3.73035 -8.5
      vertex 13.9466 -5.52187 -11.5
      vertex 13.9466 -5.52187 -8.5
    endloop
  endfacet
  facet normal -0.904837 -0.425758 0
    outer loop
      vertex 13.9466 5.52187 -11.5
      vertex 13.1446 7.22631 -8.5
      vertex 13.1446 7.22631 -11.5
    endloop
  endfacet
  facet normal -0.904837 -0.425758 0
    outer loop
      vertex 13.1446 7.22631 -8.5
      vertex 13.9466 5.52187 -11.5
      vertex 13.9466 5.52187 -8.5
    endloop
  endfacet
  facet normal -0.844338 0.535811 0
    outer loop
      vertex 12.1353 -8.81678 -11.5
      vertex 13.1446 -7.22631 -8.5
      vertex 13.1446 -7.22631 -11.5
    endloop
  endfacet
  facet normal -0.844338 0.535811 0
    outer loop
      vertex 13.1446 -7.22631 -8.5
      vertex 12.1353 -8.81678 -11.5
      vertex 12.1353 -8.81678 -8.5
    endloop
  endfacet
  facet normal -0.951057 -0.309017 0
    outer loop
      vertex 14.5287 3.73035 -11.5
      vertex 13.9466 5.52187 -8.5
      vertex 13.9466 5.52187 -11.5
    endloop
  endfacet
  facet normal -0.951057 -0.309017 0
    outer loop
      vertex 13.9466 5.52187 -8.5
      vertex 14.5287 3.73035 -11.5
      vertex 14.5287 3.73035 -8.5
    endloop
  endfacet
  facet normal -0.368104 0.929785 0
    outer loop
      vertex 6.38669 -13.5724 -11.5
      vertex 4.63525 -14.2658 -8.5
      vertex 6.38669 -13.5724 -8.5
    endloop
  endfacet
  facet normal -0.368104 0.929785 0
    outer loop
      vertex 4.63525 -14.2658 -8.5
      vertex 6.38669 -13.5724 -11.5
      vertex 4.63525 -14.2658 -11.5
    endloop
  endfacet
  facet normal -0.998026 -0.0628013 0
    outer loop
      vertex 15 0 -11.5
      vertex 14.8817 1.88 -8.5
      vertex 14.8817 1.88 -11.5
    endloop
  endfacet
  facet normal -0.998026 -0.0628013 0
    outer loop
      vertex 14.8817 1.88 -8.5
      vertex 15 0 -11.5
      vertex 15 0 -8.5
    endloop
  endfacet
  facet normal -0.368104 -0.929785 0
    outer loop
      vertex 4.63525 14.2658 -11.5
      vertex 6.38669 13.5724 -8.5
      vertex 4.63525 14.2658 -8.5
    endloop
  endfacet
  facet normal -0.368104 -0.929785 -0
    outer loop
      vertex 6.38669 13.5724 -8.5
      vertex 4.63525 14.2658 -11.5
      vertex 6.38669 13.5724 -11.5
    endloop
  endfacet
  facet normal -0.770492 0.63745 0
    outer loop
      vertex 10.9345 -10.2682 -11.5
      vertex 12.1353 -8.81678 -8.5
      vertex 12.1353 -8.81678 -11.5
    endloop
  endfacet
  facet normal -0.770492 0.63745 0
    outer loop
      vertex 12.1353 -8.81678 -8.5
      vertex 10.9345 -10.2682 -11.5
      vertex 10.9345 -10.2682 -8.5
    endloop
  endfacet
  facet normal -0.904837 0.425758 0
    outer loop
      vertex 13.1446 -7.22631 -11.5
      vertex 13.9466 -5.52187 -8.5
      vertex 13.9466 -5.52187 -11.5
    endloop
  endfacet
  facet normal -0.904837 0.425758 0
    outer loop
      vertex 13.9466 -5.52187 -8.5
      vertex 13.1446 -7.22631 -11.5
      vertex 13.1446 -7.22631 -8.5
    endloop
  endfacet
  facet normal 0.684557 -0.728959 0
    outer loop
      vertex -10.9345 10.2682 -11.5
      vertex -9.56136 11.5577 -8.5
      vertex -10.9345 10.2682 -8.5
    endloop
  endfacet
  facet normal 0.684557 -0.728959 0
    outer loop
      vertex -9.56136 11.5577 -8.5
      vertex -10.9345 10.2682 -11.5
      vertex -9.56136 11.5577 -11.5
    endloop
  endfacet
  facet normal 0.904837 -0.425758 0
    outer loop
      vertex -13.9466 5.52187 -8.5
      vertex -13.1446 7.22631 -11.5
      vertex -13.1446 7.22631 -8.5
    endloop
  endfacet
  facet normal 0.904837 -0.425758 0
    outer loop
      vertex -13.1446 7.22631 -11.5
      vertex -13.9466 5.52187 -8.5
      vertex -13.9466 5.52187 -11.5
    endloop
  endfacet
  facet normal 0.48176 -0.876303 0
    outer loop
      vertex -8.0374 12.6649 -11.5
      vertex -6.38669 13.5724 -8.5
      vertex -8.0374 12.6649 -8.5
    endloop
  endfacet
  facet normal 0.48176 -0.876303 0
    outer loop
      vertex -6.38669 13.5724 -8.5
      vertex -8.0374 12.6649 -11.5
      vertex -6.38669 13.5724 -11.5
    endloop
  endfacet
  facet normal 0.844338 -0.535811 0
    outer loop
      vertex -13.1446 7.22631 -8.5
      vertex -12.1353 8.81678 -11.5
      vertex -12.1353 8.81678 -8.5
    endloop
  endfacet
  facet normal 0.844338 -0.535811 0
    outer loop
      vertex -12.1353 8.81678 -11.5
      vertex -13.1446 7.22631 -8.5
      vertex -13.1446 7.22631 -11.5
    endloop
  endfacet
  facet normal 0.684557 0.728959 -0
    outer loop
      vertex -9.56136 -11.5577 -11.5
      vertex -10.9345 -10.2682 -8.5
      vertex -9.56136 -11.5577 -8.5
    endloop
  endfacet
  facet normal 0.684557 0.728959 0
    outer loop
      vertex -10.9345 -10.2682 -8.5
      vertex -9.56136 -11.5577 -11.5
      vertex -10.9345 -10.2682 -11.5
    endloop
  endfacet
  facet normal 0.48176 0.876303 -0
    outer loop
      vertex -6.38669 -13.5724 -11.5
      vertex -8.0374 -12.6649 -8.5
      vertex -6.38669 -13.5724 -8.5
    endloop
  endfacet
  facet normal 0.48176 0.876303 0
    outer loop
      vertex -8.0374 -12.6649 -8.5
      vertex -6.38669 -13.5724 -11.5
      vertex -8.0374 -12.6649 -11.5
    endloop
  endfacet
  facet normal -0.48176 -0.876303 0
    outer loop
      vertex 6.38669 13.5724 -11.5
      vertex 8.0374 12.6649 -8.5
      vertex 6.38669 13.5724 -8.5
    endloop
  endfacet
  facet normal -0.48176 -0.876303 -0
    outer loop
      vertex 8.0374 12.6649 -8.5
      vertex 6.38669 13.5724 -11.5
      vertex 8.0374 12.6649 -11.5
    endloop
  endfacet
  facet normal 0 1 -0
    outer loop
      vertex 0.941857 -14.9704 -11.5
      vertex -0.941857 -14.9704 -8.5
      vertex 0.941857 -14.9704 -8.5
    endloop
  endfacet
  facet normal 0 1 0
    outer loop
      vertex -0.941857 -14.9704 -8.5
      vertex 0.941857 -14.9704 -11.5
      vertex -0.941857 -14.9704 -11.5
    endloop
  endfacet
  facet normal 0.368104 0.929785 -0
    outer loop
      vertex -4.63525 -14.2658 -11.5
      vertex -6.38669 -13.5724 -8.5
      vertex -4.63525 -14.2658 -8.5
    endloop
  endfacet
  facet normal 0.368104 0.929785 0
    outer loop
      vertex -6.38669 -13.5724 -8.5
      vertex -4.63525 -14.2658 -11.5
      vertex -6.38669 -13.5724 -11.5
    endloop
  endfacet
  facet normal -0.125337 -0.992114 0
    outer loop
      vertex 0.941857 14.9704 -11.5
      vertex 2.81072 14.7343 -8.5
      vertex 0.941857 14.9704 -8.5
    endloop
  endfacet
  facet normal -0.125337 -0.992114 -0
    outer loop
      vertex 2.81072 14.7343 -8.5
      vertex 0.941857 14.9704 -11.5
      vertex 2.81072 14.7343 -11.5
    endloop
  endfacet
  facet normal -0.24871 0.968578 0
    outer loop
      vertex 4.63525 -14.2658 -11.5
      vertex 2.81072 -14.7343 -8.5
      vertex 4.63525 -14.2658 -8.5
    endloop
  endfacet
  facet normal -0.24871 0.968578 0
    outer loop
      vertex 2.81072 -14.7343 -8.5
      vertex 4.63525 -14.2658 -11.5
      vertex 2.81072 -14.7343 -11.5
    endloop
  endfacet
  facet normal 0.587778 -0.809022 0
    outer loop
      vertex -9.56136 11.5577 -11.5
      vertex -8.0374 12.6649 -8.5
      vertex -9.56136 11.5577 -8.5
    endloop
  endfacet
  facet normal 0.587778 -0.809022 0
    outer loop
      vertex -8.0374 12.6649 -8.5
      vertex -9.56136 11.5577 -11.5
      vertex -8.0374 12.6649 -11.5
    endloop
  endfacet
  facet normal 0.982285 0.187395 0
    outer loop
      vertex -14.5287 -3.73035 -8.5
      vertex -14.8817 -1.88 -11.5
      vertex -14.8817 -1.88 -8.5
    endloop
  endfacet
  facet normal 0.982285 0.187395 0
    outer loop
      vertex -14.8817 -1.88 -11.5
      vertex -14.5287 -3.73035 -8.5
      vertex -14.5287 -3.73035 -11.5
    endloop
  endfacet
  facet normal -0.587778 0.809022 0
    outer loop
      vertex 9.56136 -11.5577 -11.5
      vertex 8.0374 -12.6649 -8.5
      vertex 9.56136 -11.5577 -8.5
    endloop
  endfacet
  facet normal -0.587778 0.809022 0
    outer loop
      vertex 8.0374 -12.6649 -8.5
      vertex 9.56136 -11.5577 -11.5
      vertex 8.0374 -12.6649 -11.5
    endloop
  endfacet
  facet normal 0.951057 0.309017 0
    outer loop
      vertex -13.9466 -5.52187 -8.5
      vertex -14.5287 -3.73035 -11.5
      vertex -14.5287 -3.73035 -8.5
    endloop
  endfacet
  facet normal 0.951057 0.309017 0
    outer loop
      vertex -14.5287 -3.73035 -11.5
      vertex -13.9466 -5.52187 -8.5
      vertex -13.9466 -5.52187 -11.5
    endloop
  endfacet
  facet normal -0.125337 0.992114 0
    outer loop
      vertex 2.81072 -14.7343 -11.5
      vertex 0.941857 -14.9704 -8.5
      vertex 2.81072 -14.7343 -8.5
    endloop
  endfacet
  facet normal -0.125337 0.992114 0
    outer loop
      vertex 0.941857 -14.9704 -8.5
      vertex 2.81072 -14.7343 -11.5
      vertex 0.941857 -14.9704 -11.5
    endloop
  endfacet
  facet normal 0.951057 -0.309017 0
    outer loop
      vertex -14.5287 3.73035 -8.5
      vertex -13.9466 5.52187 -11.5
      vertex -13.9466 5.52187 -8.5
    endloop
  endfacet
  facet normal 0.951057 -0.309017 0
    outer loop
      vertex -13.9466 5.52187 -11.5
      vertex -14.5287 3.73035 -8.5
      vertex -14.5287 3.73035 -11.5
    endloop
  endfacet
  facet normal -0.24871 -0.968578 0
    outer loop
      vertex 2.81072 14.7343 -11.5
      vertex 4.63525 14.2658 -8.5
      vertex 2.81072 14.7343 -8.5
    endloop
  endfacet
  facet normal -0.24871 -0.968578 -0
    outer loop
      vertex 4.63525 14.2658 -8.5
      vertex 2.81072 14.7343 -11.5
      vertex 4.63525 14.2658 -11.5
    endloop
  endfacet
  facet normal 0.982285 -0.187395 0
    outer loop
      vertex -14.8817 1.88 -8.5
      vertex -14.5287 3.73035 -11.5
      vertex -14.5287 3.73035 -8.5
    endloop
  endfacet
  facet normal 0.982285 -0.187395 0
    outer loop
      vertex -14.5287 3.73035 -11.5
      vertex -14.8817 1.88 -8.5
      vertex -14.8817 1.88 -11.5
    endloop
  endfacet
  facet normal 0.368104 -0.929785 0
    outer loop
      vertex -6.38669 13.5724 -11.5
      vertex -4.63525 14.2658 -8.5
      vertex -6.38669 13.5724 -8.5
    endloop
  endfacet
  facet normal 0.368104 -0.929785 0
    outer loop
      vertex -4.63525 14.2658 -8.5
      vertex -6.38669 13.5724 -11.5
      vertex -4.63525 14.2658 -11.5
    endloop
  endfacet
  facet normal -0.982285 -0.187395 0
    outer loop
      vertex 14.8817 1.88 -11.5
      vertex 14.5287 3.73035 -8.5
      vertex 14.5287 3.73035 -11.5
    endloop
  endfacet
  facet normal -0.982285 -0.187395 0
    outer loop
      vertex 14.5287 3.73035 -8.5
      vertex 14.8817 1.88 -11.5
      vertex 14.8817 1.88 -8.5
    endloop
  endfacet
  facet normal 0.904837 0.425758 0
    outer loop
      vertex -13.1446 -7.22631 -8.5
      vertex -13.9466 -5.52187 -11.5
      vertex -13.9466 -5.52187 -8.5
    endloop
  endfacet
  facet normal 0.904837 0.425758 0
    outer loop
      vertex -13.9466 -5.52187 -11.5
      vertex -13.1446 -7.22631 -8.5
      vertex -13.1446 -7.22631 -11.5
    endloop
  endfacet
  facet normal 0.998026 0.0628013 0
    outer loop
      vertex -14.8817 -1.88 -8.5
      vertex -15 0 -11.5
      vertex -15 0 -8.5
    endloop
  endfacet
  facet normal 0.998026 0.0628013 0
    outer loop
      vertex -15 0 -11.5
      vertex -14.8817 -1.88 -8.5
      vertex -14.8817 -1.88 -11.5
    endloop
  endfacet
  facet normal -0.844338 -0.535811 0
    outer loop
      vertex 13.1446 7.22631 -11.5
      vertex 12.1353 8.81678 -8.5
      vertex 12.1353 8.81678 -11.5
    endloop
  endfacet
  facet normal -0.844338 -0.535811 0
    outer loop
      vertex 12.1353 8.81678 -8.5
      vertex 13.1446 7.22631 -11.5
      vertex 13.1446 7.22631 -8.5
    endloop
  endfacet
  facet normal 0.24871 -0.968578 0
    outer loop
      vertex -4.63525 14.2658 -11.5
      vertex -2.81072 14.7343 -8.5
      vertex -4.63525 14.2658 -8.5
    endloop
  endfacet
  facet normal 0.24871 -0.968578 0
    outer loop
      vertex -2.81072 14.7343 -8.5
      vertex -4.63525 14.2658 -11.5
      vertex -2.81072 14.7343 -11.5
    endloop
  endfacet
  facet normal -0.587778 -0.809022 0
    outer loop
      vertex 8.0374 12.6649 -11.5
      vertex 9.56136 11.5577 -8.5
      vertex 8.0374 12.6649 -8.5
    endloop
  endfacet
  facet normal -0.587778 -0.809022 -0
    outer loop
      vertex 9.56136 11.5577 -8.5
      vertex 8.0374 12.6649 -11.5
      vertex 9.56136 11.5577 -11.5
    endloop
  endfacet
  facet normal -0.48176 0.876303 0
    outer loop
      vertex 8.0374 -12.6649 -11.5
      vertex 6.38669 -13.5724 -8.5
      vertex 8.0374 -12.6649 -8.5
    endloop
  endfacet
  facet normal -0.48176 0.876303 0
    outer loop
      vertex 6.38669 -13.5724 -8.5
      vertex 8.0374 -12.6649 -11.5
      vertex 6.38669 -13.5724 -11.5
    endloop
  endfacet
  facet normal 0.998026 -0.0628013 0
    outer loop
      vertex -15 0 -8.5
      vertex -14.8817 1.88 -11.5
      vertex -14.8817 1.88 -8.5
    endloop
  endfacet
  facet normal 0.998026 -0.0628013 0
    outer loop
      vertex -14.8817 1.88 -11.5
      vertex -15 0 -8.5
      vertex -15 0 -11.5
    endloop
  endfacet
  facet normal 0.24871 0.968578 -0
    outer loop
      vertex -2.81072 -14.7343 -11.5
      vertex -4.63525 -14.2658 -8.5
      vertex -2.81072 -14.7343 -8.5
    endloop
  endfacet
  facet normal 0.24871 0.968578 0
    outer loop
      vertex -4.63525 -14.2658 -8.5
      vertex -2.81072 -14.7343 -11.5
      vertex -4.63525 -14.2658 -11.5
    endloop
  endfacet
  facet normal 0.125337 -0.992114 0
    outer loop
      vertex -2.81072 14.7343 -11.5
      vertex -0.941857 14.9704 -8.5
      vertex -2.81072 14.7343 -8.5
    endloop
  endfacet
  facet normal 0.125337 -0.992114 0
    outer loop
      vertex -0.941857 14.9704 -8.5
      vertex -2.81072 14.7343 -11.5
      vertex -0.941857 14.9704 -11.5
    endloop
  endfacet
  facet normal 0.125337 0.992114 -0
    outer loop
      vertex -0.941857 -14.9704 -11.5
      vertex -2.81072 -14.7343 -8.5
      vertex -0.941857 -14.9704 -8.5
    endloop
  endfacet
  facet normal 0.125337 0.992114 0
    outer loop
      vertex -2.81072 -14.7343 -8.5
      vertex -0.941857 -14.9704 -11.5
      vertex -2.81072 -14.7343 -11.5
    endloop
  endfacet
  facet normal -0.684557 0.728959 0
    outer loop
      vertex 10.9345 -10.2682 -11.5
      vertex 9.56136 -11.5577 -8.5
      vertex 10.9345 -10.2682 -8.5
    endloop
  endfacet
  facet normal -0.684557 0.728959 0
    outer loop
      vertex 9.56136 -11.5577 -8.5
      vertex 10.9345 -10.2682 -11.5
      vertex 9.56136 -11.5577 -11.5
    endloop
  endfacet
  facet normal 0.770492 -0.63745 0
    outer loop
      vertex -12.1353 8.81678 -8.5
      vertex -10.9345 10.2682 -11.5
      vertex -10.9345 10.2682 -8.5
    endloop
  endfacet
  facet normal 0.770492 -0.63745 0
    outer loop
      vertex -10.9345 10.2682 -11.5
      vertex -12.1353 8.81678 -8.5
      vertex -12.1353 8.81678 -11.5
    endloop
  endfacet
  facet normal 0.770492 0.63745 0
    outer loop
      vertex -10.9345 -10.2682 -8.5
      vertex -12.1353 -8.81678 -11.5
      vertex -12.1353 -8.81678 -8.5
    endloop
  endfacet
  facet normal 0.770492 0.63745 0
    outer loop
      vertex -12.1353 -8.81678 -11.5
      vertex -10.9345 -10.2682 -8.5
      vertex -10.9345 -10.2682 -11.5
    endloop
  endfacet
  facet normal -0.684557 -0.728959 0
    outer loop
      vertex 9.56136 11.5577 -11.5
      vertex 10.9345 10.2682 -8.5
      vertex 9.56136 11.5577 -8.5
    endloop
  endfacet
  facet normal -0.684557 -0.728959 -0
    outer loop
      vertex 10.9345 10.2682 -8.5
      vertex 9.56136 11.5577 -11.5
      vertex 10.9345 10.2682 -11.5
    endloop
  endfacet
  facet normal -0.770492 -0.63745 0
    outer loop
      vertex 12.1353 8.81678 -11.5
      vertex 10.9345 10.2682 -8.5
      vertex 10.9345 10.2682 -11.5
    endloop
  endfacet
  facet normal -0.770492 -0.63745 0
    outer loop
      vertex 10.9345 10.2682 -8.5
      vertex 12.1353 8.81678 -11.5
      vertex 12.1353 8.81678 -8.5
    endloop
  endfacet
  facet normal 0.587778 0.809022 -0
    outer loop
      vertex -8.0374 -12.6649 -11.5
      vertex -9.56136 -11.5577 -8.5
      vertex -8.0374 -12.6649 -8.5
    endloop
  endfacet
  facet normal 0.587778 0.809022 0
    outer loop
      vertex -9.56136 -11.5577 -8.5
      vertex -8.0374 -12.6649 -11.5
      vertex -9.56136 -11.5577 -11.5
    endloop
  endfacet
  facet normal 0.844338 0.535811 0
    outer loop
      vertex -12.1353 -8.81678 -8.5
      vertex -13.1446 -7.22631 -11.5
      vertex -13.1446 -7.22631 -8.5
    endloop
  endfacet
  facet normal 0.844338 0.535811 0
    outer loop
      vertex -13.1446 -7.22631 -11.5
      vertex -12.1353 -8.81678 -8.5
      vertex -12.1353 -8.81678 -11.5
    endloop
  endfacet
  facet normal 0 1 -0
    outer loop
      vertex 27.5 47.6314 -11.5
      vertex -27.5 47.6314 0
      vertex 27.5 47.6314 0
    endloop
  endfacet
  facet normal 0 1 0
    outer loop
      vertex -27.5 47.6314 0
      vertex 27.5 47.6314 -11.5
      vertex -27.5 47.6314 -11.5
    endloop
  endfacet
  facet normal 0.866025 0.5 0
    outer loop
      vertex 55 0 0
      vertex 27.5 47.6314 -11.5
      vertex 27.5 47.6314 0
    endloop
  endfacet
  facet normal 0.866025 0.5 0
    outer loop
      vertex 27.5 47.6314 -11.5
      vertex 55 0 0
      vertex 55 0 -11.5
    endloop
  endfacet
  facet normal 0 -1 0
    outer loop
      vertex -27.5 -47.6314 -11.5
      vertex 27.5 -47.6314 0
      vertex -27.5 -47.6314 0
    endloop
  endfacet
  facet normal 0 -1 -0
    outer loop
      vertex 27.5 -47.6314 0
      vertex -27.5 -47.6314 -11.5
      vertex 27.5 -47.6314 -11.5
    endloop
  endfacet
  facet normal 0.866025 -0.5 0
    outer loop
      vertex 27.5 -47.6314 0
      vertex 55 0 -11.5
      vertex 55 0 0
    endloop
  endfacet
  facet normal 0.866025 -0.5 0
    outer loop
      vertex 55 0 -11.5
      vertex 27.5 -47.6314 0
      vertex 27.5 -47.6314 -11.5
    endloop
  endfacet
  facet normal -0.866025 -0.5 0
    outer loop
      vertex -27.5 -47.6314 -11.5
      vertex -55 0 0
      vertex -55 0 -11.5
    endloop
  endfacet
  facet normal -0.866025 -0.5 0
    outer loop
      vertex -55 0 0
      vertex -27.5 -47.6314 -11.5
      vertex -27.5 -47.6314 0
    endloop
  endfacet
  facet normal -0.866025 0.5 0
    outer loop
      vertex -55 0 -11.5
      vertex -27.5 47.6314 0
      vertex -27.5 47.6314 -11.5
    endloop
  endfacet
  facet normal -0.866025 0.5 0
    outer loop
      vertex -27.5 47.6314 0
      vertex -55 0 -11.5
      vertex -55 0 0
    endloop
  endfacet
  facet normal 0 0 -1
    outer loop
      vertex 13.1446 -7.22631 -11.5
      vertex 55 0 -11.5
      vertex 27.5 -47.6314 -11.5
    endloop
  endfacet
  facet normal 0 0 -1
    outer loop
      vertex 14.8817 1.88 -11.5
      vertex 55 0 -11.5
      vertex 15 0 -11.5
    endloop
  endfacet
  facet normal -0 0 -1
    outer loop
      vertex 55 0 -11.5
      vertex 14.8817 -1.88 -11.5
      vertex 15 0 -11.5
    endloop
  endfacet
  facet normal 0 0 -1
    outer loop
      vertex 55 0 -11.5
      vertex 14.5287 -3.73035 -11.5
      vertex 14.8817 -1.88 -11.5
    endloop
  endfacet
  facet normal 0 0 -1
    outer loop
      vertex 55 0 -11.5
      vertex 13.9466 -5.52187 -11.5
      vertex 14.5287 -3.73035 -11.5
    endloop
  endfacet
  facet normal 0 0 -1
    outer loop
      vertex 55 0 -11.5
      vertex 13.1446 -7.22631 -11.5
      vertex 13.9466 -5.52187 -11.5
    endloop
  endfacet
  facet normal 0 0 -1
    outer loop
      vertex 27.5 -47.6314 -11.5
      vertex 12.1353 -8.81678 -11.5
      vertex 13.1446 -7.22631 -11.5
    endloop
  endfacet
  facet normal 0 0 -1
    outer loop
      vertex 27.5 -47.6314 -11.5
      vertex 10.9345 -10.2682 -11.5
      vertex 12.1353 -8.81678 -11.5
    endloop
  endfacet
  facet normal 0 0 -1
    outer loop
      vertex 27.5 -47.6314 -11.5
      vertex 9.56136 -11.5577 -11.5
      vertex 10.9345 -10.2682 -11.5
    endloop
  endfacet
  facet normal 0 0 -1
    outer loop
      vertex 27.5 -47.6314 -11.5
      vertex 8.0374 -12.6649 -11.5
      vertex 9.56136 -11.5577 -11.5
    endloop
  endfacet
  facet normal 0 0 -1
    outer loop
      vertex 27.5 -47.6314 -11.5
      vertex 6.38669 -13.5724 -11.5
      vertex 8.0374 -12.6649 -11.5
    endloop
  endfacet
  facet normal 0 0 -1
    outer loop
      vertex 27.5 -47.6314 -11.5
      vertex 4.63525 -14.2658 -11.5
      vertex 6.38669 -13.5724 -11.5
    endloop
  endfacet
  facet normal 0 0 -1
    outer loop
      vertex 27.5 -47.6314 -11.5
      vertex 2.81072 -14.7343 -11.5
      vertex 4.63525 -14.2658 -11.5
    endloop
  endfacet
  facet normal 0 0 -1
    outer loop
      vertex 27.5 -47.6314 -11.5
      vertex 0.941857 -14.9704 -11.5
      vertex 2.81072 -14.7343 -11.5
    endloop
  endfacet
  facet normal 0 0 -1
    outer loop
      vertex 27.5 -47.6314 -11.5
      vertex -0.941857 -14.9704 -11.5
      vertex 0.941857 -14.9704 -11.5
    endloop
  endfacet
  facet normal 0 0 -1
    outer loop
      vertex -27.5 -47.6314 -11.5
      vertex -0.941857 -14.9704 -11.5
      vertex 27.5 -47.6314 -11.5
    endloop
  endfacet
  facet normal -0 0 -1
    outer loop
      vertex -0.941857 -14.9704 -11.5
      vertex -27.5 -47.6314 -11.5
      vertex -2.81072 -14.7343 -11.5
    endloop
  endfacet
  facet normal -0 0 -1
    outer loop
      vertex -2.81072 -14.7343 -11.5
      vertex -27.5 -47.6314 -11.5
      vertex -4.63525 -14.2658 -11.5
    endloop
  endfacet
  facet normal -0 0 -1
    outer loop
      vertex -4.63525 -14.2658 -11.5
      vertex -27.5 -47.6314 -11.5
      vertex -6.38669 -13.5724 -11.5
    endloop
  endfacet
  facet normal -0 0 -1
    outer loop
      vertex -6.38669 -13.5724 -11.5
      vertex -27.5 -47.6314 -11.5
      vertex -8.0374 -12.6649 -11.5
    endloop
  endfacet
  facet normal -0 0 -1
    outer loop
      vertex -8.0374 -12.6649 -11.5
      vertex -27.5 -47.6314 -11.5
      vertex -9.56136 -11.5577 -11.5
    endloop
  endfacet
  facet normal 0 0 -1
    outer loop
      vertex -14.5287 -3.73035 -11.5
      vertex -55 0 -11.5
      vertex -14.8817 -1.88 -11.5
    endloop
  endfacet
  facet normal 0 0 -1
    outer loop
      vertex -13.9466 -5.52187 -11.5
      vertex -55 0 -11.5
      vertex -14.5287 -3.73035 -11.5
    endloop
  endfacet
  facet normal 0 0 -1
    outer loop
      vertex -13.1446 -7.22631 -11.5
      vertex -55 0 -11.5
      vertex -13.9466 -5.52187 -11.5
    endloop
  endfacet
  facet normal 0 0 -1
    outer loop
      vertex -55 0 -11.5
      vertex -13.1446 -7.22631 -11.5
      vertex -27.5 -47.6314 -11.5
    endloop
  endfacet
  facet normal -0 0 -1
    outer loop
      vertex -12.1353 -8.81678 -11.5
      vertex -27.5 -47.6314 -11.5
      vertex -13.1446 -7.22631 -11.5
    endloop
  endfacet
  facet normal -0 0 -1
    outer loop
      vertex -10.9345 -10.2682 -11.5
      vertex -27.5 -47.6314 -11.5
      vertex -12.1353 -8.81678 -11.5
    endloop
  endfacet
  facet normal -0 0 -1
    outer loop
      vertex -9.56136 -11.5577 -11.5
      vertex -27.5 -47.6314 -11.5
      vertex -10.9345 -10.2682 -11.5
    endloop
  endfacet
  facet normal 0 0 -1
    outer loop
      vertex 14.5287 3.73035 -11.5
      vertex 55 0 -11.5
      vertex 14.8817 1.88 -11.5
    endloop
  endfacet
  facet normal 0 0 -1
    outer loop
      vertex 13.9466 5.52187 -11.5
      vertex 55 0 -11.5
      vertex 14.5287 3.73035 -11.5
    endloop
  endfacet
  facet normal 0 0 -1
    outer loop
      vertex 13.1446 7.22631 -11.5
      vertex 55 0 -11.5
      vertex 13.9466 5.52187 -11.5
    endloop
  endfacet
  facet normal 0 0 -1
    outer loop
      vertex 55 0 -11.5
      vertex 13.1446 7.22631 -11.5
      vertex 27.5 47.6314 -11.5
    endloop
  endfacet
  facet normal 0 0 -1
    outer loop
      vertex 12.1353 8.81678 -11.5
      vertex 27.5 47.6314 -11.5
      vertex 13.1446 7.22631 -11.5
    endloop
  endfacet
  facet normal 0 0 -1
    outer loop
      vertex 10.9345 10.2682 -11.5
      vertex 27.5 47.6314 -11.5
      vertex 12.1353 8.81678 -11.5
    endloop
  endfacet
  facet normal 0 0 -1
    outer loop
      vertex 9.56136 11.5577 -11.5
      vertex 27.5 47.6314 -11.5
      vertex 10.9345 10.2682 -11.5
    endloop
  endfacet
  facet normal 0 0 -1
    outer loop
      vertex 8.0374 12.6649 -11.5
      vertex 27.5 47.6314 -11.5
      vertex 9.56136 11.5577 -11.5
    endloop
  endfacet
  facet normal 0 0 -1
    outer loop
      vertex 6.38669 13.5724 -11.5
      vertex 27.5 47.6314 -11.5
      vertex 8.0374 12.6649 -11.5
    endloop
  endfacet
  facet normal 0 0 -1
    outer loop
      vertex 4.63525 14.2658 -11.5
      vertex 27.5 47.6314 -11.5
      vertex 6.38669 13.5724 -11.5
    endloop
  endfacet
  facet normal 0 0 -1
    outer loop
      vertex 2.81072 14.7343 -11.5
      vertex 27.5 47.6314 -11.5
      vertex 4.63525 14.2658 -11.5
    endloop
  endfacet
  facet normal 0 0 -1
    outer loop
      vertex 0.941857 14.9704 -11.5
      vertex 27.5 47.6314 -11.5
      vertex 2.81072 14.7343 -11.5
    endloop
  endfacet
  facet normal 0 0 -1
    outer loop
      vertex -0.941857 14.9704 -11.5
      vertex 27.5 47.6314 -11.5
      vertex 0.941857 14.9704 -11.5
    endloop
  endfacet
  facet normal 0 0 -1
    outer loop
      vertex -27.5 47.6314 -11.5
      vertex -0.941857 14.9704 -11.5
      vertex -2.81072 14.7343 -11.5
    endloop
  endfacet
  facet normal 0 0 -1
    outer loop
      vertex -27.5 47.6314 -11.5
      vertex -2.81072 14.7343 -11.5
      vertex -4.63525 14.2658 -11.5
    endloop
  endfacet
  facet normal 0 0 -1
    outer loop
      vertex -27.5 47.6314 -11.5
      vertex -4.63525 14.2658 -11.5
      vertex -6.38669 13.5724 -11.5
    endloop
  endfacet
  facet normal 0 0 -1
    outer loop
      vertex -27.5 47.6314 -11.5
      vertex -6.38669 13.5724 -11.5
      vertex -8.0374 12.6649 -11.5
    endloop
  endfacet
  facet normal 0 0 -1
    outer loop
      vertex -27.5 47.6314 -11.5
      vertex -8.0374 12.6649 -11.5
      vertex -9.56136 11.5577 -11.5
    endloop
  endfacet
  facet normal 0 0 -1
    outer loop
      vertex -27.5 47.6314 -11.5
      vertex -9.56136 11.5577 -11.5
      vertex -10.9345 10.2682 -11.5
    endloop
  endfacet
  facet normal 0 0 -1
    outer loop
      vertex -14.8817 -1.88 -11.5
      vertex -55 0 -11.5
      vertex -15 0 -11.5
    endloop
  endfacet
  facet normal 0 0 -1
    outer loop
      vertex -15 0 -11.5
      vertex -55 0 -11.5
      vertex -14.8817 1.88 -11.5
    endloop
  endfacet
  facet normal 0 0 -1
    outer loop
      vertex -0.941857 14.9704 -11.5
      vertex -27.5 47.6314 -11.5
      vertex 27.5 47.6314 -11.5
    endloop
  endfacet
  facet normal 0 0 -1
    outer loop
      vertex -12.1353 8.81678 -11.5
      vertex -27.5 47.6314 -11.5
      vertex -10.9345 10.2682 -11.5
    endloop
  endfacet
  facet normal 0 0 -1
    outer loop
      vertex -13.1446 7.22631 -11.5
      vertex -27.5 47.6314 -11.5
      vertex -12.1353 8.81678 -11.5
    endloop
  endfacet
  facet normal 0 0 -1
    outer loop
      vertex -55 0 -11.5
      vertex -13.1446 7.22631 -11.5
      vertex -13.9466 5.52187 -11.5
    endloop
  endfacet
  facet normal 0 0 -1
    outer loop
      vertex -55 0 -11.5
      vertex -13.9466 5.52187 -11.5
      vertex -14.5287 3.73035 -11.5
    endloop
  endfacet
  facet normal -0 0 -1
    outer loop
      vertex -14.8817 1.88 -11.5
      vertex -55 0 -11.5
      vertex -14.5287 3.73035 -11.5
    endloop
  endfacet
  facet normal -0 0 -1
    outer loop
      vertex -13.1446 7.22631 -11.5
      vertex -55 0 -11.5
      vertex -27.5 47.6314 -11.5
    endloop
  endfacet
endsolid OpenSCAD_Model
